<?xml version="1.0" encoding="UTF-8"?>
<svg id="Layer_2" data-name="Layer 2" xmlns="http://www.w3.org/2000/svg" viewBox="0 0 538.84 124.45">
  <defs>
    <style>
      .cls-1 {
        fill: #1fb57a;
      }

      .cls-1, .cls-2, .cls-3, .cls-4 {
        fill-rule: evenodd;
      }

      .cls-5 {
        fill: #164fa4;
      }

      .cls-2 {
        fill: #ffba12;
      }

      .cls-6 {
        fill: #e02f18;
      }

      .cls-7, .cls-3, .cls-4, .cls-8 {
        fill: #fff;
      }

      .cls-9 {
        fill: none;
        stroke: #fff;
        stroke-width: 4px;
      }

      .cls-9, .cls-4, .cls-8 {
        stroke-miterlimit: 10;
      }

      .cls-4, .cls-8 {
        stroke: #e8e8e8;
        stroke-width: .5px;
      }
    </style>
  </defs>
  <g id="Layer_1-2" data-name="Layer 1">
    <circle class="cls-6" cx="49.67" cy="35.84" r="35.84" transform="translate(-.11 .15) rotate(-.17)"/>
    <path class="cls-2" d="M141.32,35.84c0,19.79-16.04,35.84-35.84,35.84s-35.84-16.05-35.84-35.84S85.69,0,105.48,0s35.84,16.05,35.84,35.84Z"/>
    <circle class="cls-7" cx="49.67" cy="35.84" r="6.02"/>
    <circle class="cls-5" cx="92.46" cy="88.61" r="35.84" transform="translate(-10.1 165.3) rotate(-80.57)"/>
    <path class="cls-1" d="M71.68,88.61c0,19.79-16.04,35.84-35.84,35.84S0,108.4,0,88.61s16.05-35.84,35.84-35.84,35.84,16.05,35.84,35.84Z"/>
    <path class="cls-3" d="M41.86,87.7c0,3.32-2.7,6.02-6.02,6.02s-6.02-2.69-6.02-6.02,2.69-6.02,6.02-6.02,6.02,2.69,6.02,6.02Z"/>
    <path class="cls-3" d="M97.57,88.61c0,3.32-2.69,6.02-6.02,6.02s-6.02-2.69-6.02-6.02,2.69-6.02,6.02-6.02,6.02,2.69,6.02,6.02Z"/>
    <circle class="cls-7" cx="105.48" cy="36.07" r="6.02"/>
    <path class="cls-4" d="M168.55,80.41c3.79,0,6.88-1.25,9.25-3.74,2.38-2.55,3.57-5.82,3.57-9.82s-1.19-7.24-3.57-9.73c-2.38-2.55-5.46-3.82-9.25-3.82s-6.88,1.27-9.25,3.82c-2.38,2.49-3.57,5.73-3.57,9.73s1.19,7.27,3.57,9.82c2.38,2.49,5.46,3.74,9.25,3.74ZM190.87,27.5v60.82h-8.49l-.08-5.73c-1.64,2.09-3.82,3.74-6.54,4.95-2.66,1.16-5.63,1.74-8.91,1.74-3.96,0-7.5-.93-10.61-2.78-3.11-1.85-5.57-4.46-7.39-7.82-1.75-3.42-2.63-7.36-2.63-11.82s.88-8.37,2.63-11.73c1.81-3.42,4.27-6.05,7.39-7.91,3.11-1.85,6.65-2.78,10.61-2.78,3,0,5.74.49,8.23,1.48,2.49.98,4.58,2.35,6.28,4.08v-22.5h9.51Z"/>
    <path class="cls-4" d="M217.01,80.41c2.55,0,4.78-.61,6.71-1.82,1.98-1.22,3.48-2.84,4.5-4.87,1.08-2.09,1.61-4.37,1.61-6.86s-.54-4.75-1.61-6.78c-1.02-2.09-2.52-3.74-4.5-4.95-1.92-1.22-4.16-1.82-6.71-1.82s-4.81.61-6.79,1.82c-1.92,1.22-3.42,2.87-4.5,4.95-1.08,2.03-1.61,4.29-1.61,6.78s.54,4.78,1.61,6.86c1.08,2.03,2.58,3.65,4.5,4.87,1.98,1.22,4.25,1.82,6.79,1.82ZM217.01,89.27c-4.47,0-8.4-.96-11.8-2.87-3.4-1.97-6.03-4.63-7.9-7.99-1.81-3.42-2.72-7.27-2.72-11.56s.9-8.11,2.72-11.47c1.87-3.42,4.5-6.08,7.9-7.99,3.4-1.97,7.33-2.95,11.8-2.95s8.32.99,11.71,2.95c3.4,1.91,6,4.58,7.81,7.99,1.87,3.36,2.8,7.18,2.8,11.47s-.93,8.14-2.8,11.56c-1.81,3.36-4.41,6.02-7.81,7.99-3.4,1.91-7.3,2.87-11.71,2.87Z"/>
    <path class="cls-4" d="M270.3,86.84c-1.64.75-3.2,1.27-4.67,1.56-1.41.35-3,.52-4.75.52-4.41,0-7.81-1.3-10.19-3.91-2.38-2.61-3.56-6.43-3.56-11.47v-19.9h-7.9v-8.25h7.9v-11.21l9.42-1.04v12.25h12.05v8.25h-12.05v19.9c0,2.2.48,3.88,1.44,5.04,1.02,1.16,2.49,1.74,4.41,1.74,1.7,0,3.45-.43,5.26-1.3l2.63,7.82Z"/>
    <path class="cls-4" d="M295.1,89.53c-4.53,0-8.97-.72-13.33-2.17-4.36-1.51-8.26-3.62-11.71-6.34l5.18-7.65c2.49,2.14,5.49,3.82,9,5.04,3.57,1.22,7.19,1.82,10.87,1.82,4.3,0,7.75-.81,10.36-2.43,2.6-1.68,3.91-3.88,3.91-6.6,0-2.49-1.19-4.46-3.57-5.91-2.38-1.45-6.14-2.52-11.29-3.22-8.09-1.16-13.95-3.19-17.57-6.08-3.62-2.9-5.43-7.01-5.43-12.34,0-3.36.96-6.34,2.89-8.95,1.98-2.66,4.7-4.72,8.15-6.17,3.51-1.51,7.5-2.26,11.97-2.26,3.96,0,7.87.67,11.71,2,3.85,1.33,7.27,3.19,10.27,5.56l-5.01,7.21c-2.43-1.91-5.12-3.36-8.06-4.34-2.94-.99-5.89-1.48-8.83-1.48-3.9,0-7.1.81-9.59,2.43-2.49,1.56-3.73,3.59-3.73,6.08s1.13,4.37,3.4,5.82c2.26,1.45,5.89,2.55,10.87,3.3,8.43,1.27,14.52,3.33,18.25,6.17,3.73,2.78,5.6,6.75,5.6,11.9,0,3.71-1.02,6.98-3.06,9.82-1.98,2.78-4.81,4.95-8.49,6.52-3.68,1.51-7.92,2.26-12.73,2.26Z"/>
    <path class="cls-4" d="M342.74,80.41c2.55,0,4.78-.61,6.71-1.82,1.98-1.22,3.48-2.84,4.5-4.87,1.08-2.09,1.61-4.37,1.61-6.86s-.54-4.75-1.61-6.78c-1.02-2.09-2.52-3.74-4.5-4.95-1.92-1.22-4.16-1.82-6.71-1.82s-4.81.61-6.79,1.82c-1.92,1.22-3.42,2.87-4.5,4.95-1.08,2.03-1.61,4.29-1.61,6.78s.54,4.78,1.61,6.86c1.08,2.03,2.58,3.65,4.5,4.87,1.98,1.22,4.24,1.82,6.79,1.82ZM342.74,89.27c-4.47,0-8.4-.96-11.8-2.87-3.4-1.97-6.03-4.63-7.9-7.99-1.81-3.42-2.72-7.27-2.72-11.56s.91-8.11,2.72-11.47c1.87-3.42,4.5-6.08,7.9-7.99,3.4-1.97,7.33-2.95,11.8-2.95s8.32.99,11.71,2.95c3.4,1.91,6,4.58,7.81,7.99,1.87,3.36,2.8,7.18,2.8,11.47s-.93,8.14-2.8,11.56c-1.81,3.36-4.41,6.02-7.81,7.99-3.4,1.91-7.3,2.87-11.71,2.87Z"/>
    <rect class="cls-8" x="368.77" y="27.5" width="9.51" height="60.82"/>
    <polygon class="cls-4" points="415.97 45.4 426.16 45.4 408.41 88.31 398.23 88.31 380.4 45.4 390.76 45.4 396.62 60.08 403.32 78.24 410.11 60.08 415.97 45.4"/>
    <path class="cls-4" d="M445.75,52.95c-3.28,0-5.97.87-8.06,2.61-2.09,1.74-3.45,4.2-4.08,7.38h24.36c-.34-3.07-1.61-5.5-3.82-7.3-2.15-1.8-4.95-2.69-8.4-2.69ZM445.49,44.53c6.79,0,12.11,2,15.96,5.99,3.85,4,5.77,9.53,5.77,16.59,0,.75-.06,1.88-.17,3.39h-33.53c.4,3.13,1.78,5.62,4.16,7.47,2.38,1.85,5.4,2.78,9.08,2.78,2.38,0,4.67-.41,6.88-1.22,2.21-.81,3.93-1.88,5.18-3.21l5.77,5.73c-2.09,2.32-4.75,4.14-7.98,5.47-3.17,1.33-6.54,2-10.1,2-4.58,0-8.6-.93-12.05-2.78-3.4-1.91-6.03-4.58-7.9-7.99-1.87-3.42-2.8-7.39-2.8-11.9s.9-8.28,2.72-11.64c1.81-3.36,4.36-5.97,7.64-7.82,3.28-1.91,7.07-2.87,11.37-2.87Z"/>
    <path class="cls-4" d="M490.24,80.41c3.79,0,6.88-1.25,9.25-3.74,2.38-2.55,3.57-5.82,3.57-9.82s-1.19-7.24-3.57-9.73c-2.38-2.55-5.46-3.82-9.25-3.82s-6.88,1.27-9.25,3.82c-2.38,2.49-3.57,5.73-3.57,9.73s1.19,7.27,3.57,9.82c2.38,2.49,5.46,3.74,9.25,3.74ZM512.56,27.5v60.82h-8.49l-.09-5.73c-1.64,2.09-3.82,3.74-6.54,4.95-2.66,1.16-5.63,1.74-8.91,1.74-3.96,0-7.5-.93-10.61-2.78-3.11-1.85-5.57-4.46-7.39-7.82-1.75-3.42-2.63-7.36-2.63-11.82s.88-8.37,2.63-11.73c1.81-3.42,4.27-6.05,7.39-7.91,3.11-1.85,6.65-2.78,10.61-2.78,3,0,5.74.49,8.23,1.48,2.49.98,4.58,2.35,6.28,4.08v-22.5h9.51Z"/>
    <path class="cls-8" d="M527.68,50.89c-1.54,0-2.97-.28-4.28-.83-1.32-.55-2.47-1.33-3.45-2.33-.99-1-1.75-2.15-2.3-3.47-.54-1.31-.82-2.73-.82-4.25s.28-2.94.83-4.25c.55-1.31,1.33-2.47,2.31-3.47.99-1,2.14-1.77,3.47-2.33s2.76-.83,4.3-.83,2.97.27,4.3.82c1.33.54,2.48,1.31,3.45,2.3.98.99,1.74,2.13,2.28,3.44.54,1.31.82,2.73.82,4.27s-.28,2.97-.83,4.3c-.55,1.33-1.33,2.49-2.33,3.48-1,1-2.15,1.77-3.47,2.33-1.32.55-2.74.83-4.28.83ZM527.68,49.5c1.34,0,2.58-.25,3.73-.74,1.15-.49,2.16-1.17,3.02-2.03.86-.86,1.53-1.88,2-3.04.47-1.16.71-2.41.71-3.75s-.24-2.58-.71-3.73c-.47-1.15-1.13-2.15-1.97-2.99-.84-.84-1.83-1.51-2.97-1.99-1.14-.48-2.39-.72-3.75-.72s-2.62.24-3.78.72c-1.16.48-2.16,1.16-3.01,2.03-.84.87-1.5,1.88-1.97,3.02-.47,1.14-.71,2.38-.71,3.71s.24,2.58.71,3.73c.47,1.15,1.13,2.16,1.97,3.02.84.86,1.84,1.54,2.99,2.02,1.15.48,2.39.72,3.73.72ZM523.33,46.17v-12.33h4.93c1.56,0,2.78.38,3.67,1.14.88.76,1.33,1.78,1.33,3.05s-.44,2.34-1.33,3.08c-.88.74-2.11,1.11-3.67,1.11h-2.84v3.95h-2.1ZM525.39,40.5h2.71c.99,0,1.75-.22,2.3-.65.54-.43.82-1.04.82-1.82s-.27-1.38-.82-1.8c-.54-.42-1.31-.63-2.3-.63h-2.71v4.9ZM531.34,46.17l-3.08-4.75h2.13l3.08,4.75h-2.13Z"/>
    <g>
      <path class="cls-8" d="M146.22,116.45l8.87-13.65h2.51l3.39,13.65h-2.51l-2.85-12.34h1.01l-7.72,12.34h-2.71ZM149.69,113.29l1.07-1.99h7.35l.33,1.99h-8.75Z"/>
      <path class="cls-8" d="M162.75,116.45l2.73-13.65h2.53l-2.73,13.65h-2.53Z"/>
      <path class="cls-8" d="M169.11,112.04l.39-2.03h5.36l-.41,2.03h-5.34Z"/>
      <path class="cls-8" d="M176.48,116.45l2.73-13.65h5.26c1.65,0,2.93.36,3.83,1.09.9.73,1.35,1.74,1.35,3.02,0,1.16-.26,2.15-.79,2.99-.53.84-1.28,1.48-2.25,1.93-.98.45-2.13.67-3.47.67h-4.44l1.35-1.21-1.03,5.15h-2.53ZM179.99,111.6l-.9-1.23h4.15c1.22,0,2.17-.27,2.85-.82.68-.55,1.01-1.34,1.01-2.4,0-.74-.25-1.29-.75-1.66-.5-.36-1.22-.55-2.15-.55h-3.96l1.33-1.27-1.58,7.91Z"/>
      <path class="cls-8" d="M195.31,116.59c-1.01,0-1.9-.19-2.66-.58s-1.35-.92-1.76-1.6-.62-1.48-.62-2.41c0-1.17.27-2.21.8-3.13.53-.92,1.26-1.64,2.19-2.16.93-.53,1.99-.79,3.19-.79,1.03,0,1.92.19,2.68.56.76.37,1.35.9,1.76,1.58.42.68.62,1.49.62,2.43,0,1.16-.27,2.2-.8,3.12-.53.92-1.26,1.65-2.19,2.18-.93.53-2,.8-3.21.8ZM195.46,114.5c.7,0,1.32-.17,1.85-.5.53-.33.96-.79,1.27-1.38.31-.58.47-1.26.47-2.03,0-.81-.24-1.44-.72-1.91s-1.16-.7-2.03-.7c-.69,0-1.3.17-1.84.5-.54.33-.96.79-1.28,1.38s-.47,1.26-.47,2.03c0,.82.24,1.46.72,1.92.48.46,1.16.69,2.03.69Z"/>
      <path class="cls-8" d="M204.84,116.45l-1.91-10.41h2.22l1.6,9.18h-1.13l5.21-9.18h2.09l1.66,9.18h-1.13l5.15-9.18h2.3l-5.81,10.41h-2.4l-1.58-8.13h.72l-4.62,8.13h-2.36Z"/>
      <path class="cls-8" d="M225.35,116.59c-1.04,0-1.94-.19-2.71-.58-.77-.38-1.36-.92-1.78-1.6s-.63-1.48-.63-2.41c0-1.18.26-2.23.78-3.14.52-.91,1.23-1.63,2.13-2.15s1.93-.79,3.09-.79c.97,0,1.82.18,2.53.55.71.36,1.27.89,1.67,1.57.4.68.59,1.5.59,2.45,0,.25-.01.5-.04.76-.03.26-.07.5-.12.72h-8.83l.27-1.62h7.41l-.99.55c.1-.66.06-1.21-.14-1.66-.19-.44-.51-.78-.94-1.01-.43-.23-.94-.35-1.54-.35-.71,0-1.34.17-1.86.5-.53.33-.93.8-1.22,1.4-.29.6-.43,1.31-.43,2.12s.24,1.49.73,1.95,1.24.68,2.27.68c.58,0,1.14-.09,1.68-.28.53-.19.97-.45,1.33-.79l1.01,1.7c-.55.48-1.19.84-1.94,1.08-.75.24-1.52.36-2.33.36Z"/>
      <path class="cls-8" d="M232.19,116.45l2.07-10.41h2.32l-.58,2.96-.21-.86c.48-.84,1.09-1.43,1.83-1.75.74-.32,1.64-.48,2.71-.48l-.45,2.32c-.1-.03-.2-.04-.29-.05s-.19,0-.31,0c-.95,0-1.73.25-2.36.75-.62.5-1.04,1.3-1.25,2.39l-1.03,5.13h-2.44Z"/>
      <path class="cls-8" d="M245.41,116.59c-1.04,0-1.94-.19-2.71-.58-.77-.38-1.36-.92-1.78-1.6s-.63-1.48-.63-2.41c0-1.18.26-2.23.78-3.14.52-.91,1.23-1.63,2.13-2.15s1.93-.79,3.09-.79c.97,0,1.82.18,2.53.55.71.36,1.27.89,1.67,1.57.4.68.59,1.5.59,2.45,0,.25-.01.5-.04.76-.03.26-.07.5-.12.72h-8.83l.27-1.62h7.41l-.99.55c.1-.66.06-1.21-.14-1.66-.19-.44-.51-.78-.94-1.01-.43-.23-.94-.35-1.54-.35-.71,0-1.34.17-1.86.5-.53.33-.93.8-1.22,1.4-.29.6-.43,1.31-.43,2.12s.24,1.49.73,1.95,1.24.68,2.27.68c.58,0,1.14-.09,1.68-.28.53-.19.97-.45,1.33-.79l1.01,1.7c-.55.48-1.19.84-1.94,1.08-.75.24-1.52.36-2.33.36Z"/>
      <path class="cls-8" d="M256.95,116.59c-.85,0-1.62-.18-2.32-.55-.7-.36-1.25-.89-1.66-1.57s-.6-1.5-.6-2.47c0-.88.15-1.7.44-2.44.29-.74.7-1.38,1.24-1.93.53-.55,1.15-.97,1.86-1.27.71-.3,1.48-.45,2.31-.45s1.6.15,2.22.45,1.1.75,1.44,1.34.51,1.34.51,2.22c0,.97-.12,1.87-.37,2.68-.25.81-.6,1.51-1.07,2.11-.47.59-1.04,1.05-1.71,1.38-.67.32-1.43.49-2.29.49ZM257.57,114.5c.69,0,1.3-.17,1.84-.5.54-.33.96-.79,1.27-1.38.31-.58.46-1.26.46-2.03,0-.81-.24-1.44-.71-1.91-.47-.47-1.15-.7-2.04-.7-.68,0-1.29.17-1.83.5-.55.33-.97.79-1.28,1.38-.31.58-.46,1.26-.46,2.03,0,.81.24,1.44.71,1.91.47.47,1.15.7,2.04.7ZM260.11,116.45l.49-2.38.64-2.77.33-2.79,1.31-6.53h2.44l-2.89,14.46h-2.32Z"/>
      <path class="cls-8" d="M271.26,116.45l2.73-13.65h5.26c1.65,0,2.93.36,3.83,1.09.9.73,1.35,1.74,1.35,3.02,0,1.16-.26,2.15-.79,2.99-.53.84-1.28,1.48-2.25,1.93s-2.13.67-3.47.67h-4.45l1.35-1.21-1.03,5.15h-2.54ZM274.77,111.6l-.9-1.23h4.15c1.22,0,2.17-.27,2.85-.82s1.01-1.34,1.01-2.4c0-.74-.25-1.29-.75-1.66-.5-.36-1.22-.55-2.15-.55h-3.96l1.33-1.27-1.58,7.91Z"/>
      <path class="cls-8" d="M284.89,116.45l2.07-10.41h2.32l-.58,2.96-.21-.86c.48-.84,1.09-1.43,1.83-1.75.74-.32,1.64-.48,2.71-.48l-.45,2.32c-.1-.03-.2-.04-.29-.05-.09,0-.2,0-.31,0-.95,0-1.73.25-2.36.75-.62.5-1.04,1.3-1.25,2.39l-1.03,5.13h-2.44Z"/>
      <path class="cls-8" d="M298.02,116.59c-1.01,0-1.9-.19-2.66-.58-.76-.38-1.35-.92-1.76-1.6-.42-.68-.62-1.48-.62-2.41,0-1.17.27-2.21.8-3.13.53-.92,1.26-1.64,2.19-2.16.93-.53,1.99-.79,3.19-.79,1.03,0,1.92.19,2.68.56.76.37,1.35.9,1.76,1.58.42.68.62,1.49.62,2.43,0,1.16-.27,2.2-.8,3.12-.53.92-1.26,1.65-2.19,2.18-.93.53-2,.8-3.21.8ZM298.18,114.5c.7,0,1.32-.17,1.85-.5.53-.33.96-.79,1.27-1.38.31-.58.47-1.26.47-2.03,0-.81-.24-1.44-.72-1.91s-1.16-.7-2.03-.7c-.69,0-1.3.17-1.84.5-.54.33-.97.79-1.28,1.38s-.47,1.26-.47,2.03c0,.82.24,1.46.72,1.92.48.46,1.16.69,2.03.69Z"/>
      <path class="cls-8" d="M310.66,116.59c-1.03,0-1.93-.19-2.7-.58-.77-.38-1.37-.92-1.78-1.6-.42-.68-.62-1.48-.62-2.41,0-1.17.27-2.21.8-3.13.53-.92,1.27-1.64,2.2-2.16s2.01-.79,3.24-.79c1.05,0,1.96.21,2.72.61.76.41,1.35,1.02,1.76,1.82l-2.09,1.07c-.23-.49-.57-.86-1-1.09-.44-.23-.96-.35-1.59-.35-.68,0-1.29.17-1.83.5-.55.33-.98.79-1.29,1.38s-.47,1.26-.47,2.03c0,.81.24,1.44.72,1.91.48.47,1.16.7,2.05.7.57,0,1.1-.12,1.6-.35.49-.23.91-.6,1.25-1.09l1.79,1.21c-.48.73-1.14,1.3-1.99,1.71s-1.77.61-2.77.61Z"/>
      <path class="cls-8" d="M321.85,116.59c-1.04,0-1.94-.19-2.71-.58s-1.36-.92-1.78-1.6c-.42-.68-.63-1.48-.63-2.41,0-1.18.26-2.23.78-3.14.52-.91,1.23-1.63,2.13-2.15s1.93-.79,3.09-.79c.97,0,1.82.18,2.53.55.71.36,1.27.89,1.67,1.57.4.68.59,1.5.59,2.45,0,.25-.01.5-.04.76-.03.26-.07.5-.12.72h-8.83l.27-1.62h7.41l-.99.55c.1-.66.06-1.21-.14-1.66-.2-.44-.51-.78-.94-1.01-.43-.23-.94-.35-1.54-.35-.71,0-1.33.17-1.86.5-.53.33-.93.8-1.22,1.4s-.43,1.31-.43,2.12.24,1.49.73,1.95,1.24.68,2.27.68c.58,0,1.14-.09,1.68-.28.53-.19.97-.45,1.33-.79l1.01,1.7c-.55.48-1.19.84-1.94,1.08-.75.24-1.52.36-2.33.36Z"/>
      <path class="cls-8" d="M332.24,116.59c-.91,0-1.76-.11-2.55-.33-.79-.22-1.4-.49-1.83-.8l1.01-1.87c.43.3.96.54,1.61.73.64.19,1.32.28,2.02.28.81,0,1.4-.11,1.78-.33.38-.22.58-.53.58-.92,0-.29-.14-.5-.41-.64-.27-.14-.62-.26-1.04-.35-.42-.09-.88-.19-1.37-.29-.49-.1-.94-.25-1.36-.43-.42-.18-.77-.45-1.04-.8-.27-.35-.41-.82-.41-1.4,0-.74.21-1.37.62-1.89.42-.52,1-.92,1.74-1.2s1.61-.42,2.58-.42c.7,0,1.39.08,2.07.23s1.23.38,1.68.66l-.9,1.87c-.47-.3-.97-.51-1.51-.62-.54-.12-1.06-.17-1.57-.17-.79,0-1.38.12-1.76.36s-.58.54-.58.91c0,.29.14.51.41.66.27.16.62.28,1.04.38.42.1.88.2,1.37.29.49.1.94.24,1.36.42s.77.45,1.04.79c.27.34.41.8.41,1.38,0,.75-.21,1.39-.63,1.92-.42.53-1.01.92-1.76,1.19-.75.27-1.62.4-2.59.4Z"/>
      <path class="cls-8" d="M342.28,116.59c-.91,0-1.76-.11-2.55-.33-.79-.22-1.4-.49-1.83-.8l1.01-1.87c.43.3.96.54,1.61.73.64.19,1.32.28,2.02.28.81,0,1.4-.11,1.78-.33.38-.22.58-.53.58-.92,0-.29-.14-.5-.41-.64-.27-.14-.62-.26-1.04-.35-.42-.09-.88-.19-1.37-.29-.49-.1-.94-.25-1.36-.43-.42-.18-.77-.45-1.04-.8-.27-.35-.41-.82-.41-1.4,0-.74.21-1.37.62-1.89.42-.52,1-.92,1.74-1.2s1.61-.42,2.58-.42c.7,0,1.39.08,2.07.23s1.23.38,1.68.66l-.9,1.87c-.47-.3-.97-.51-1.51-.62-.54-.12-1.06-.17-1.57-.17-.79,0-1.38.12-1.76.36s-.58.54-.58.91c0,.29.14.51.41.66.27.16.62.28,1.04.38.42.1.88.2,1.37.29.49.1.94.24,1.36.42s.77.45,1.04.79c.27.34.41.8.41,1.38,0,.75-.21,1.39-.63,1.92-.42.53-1.01.92-1.76,1.19-.75.27-1.62.4-2.59.4Z"/>
      <path class="cls-8" d="M357.15,116.45l2.3-11.5h-4.52l.43-2.14h11.56l-.43,2.14h-4.52l-2.28,11.5h-2.53Z"/>
      <path class="cls-8" d="M365.63,116.45l2.07-10.41h2.32l-.58,2.96-.21-.86c.48-.84,1.09-1.43,1.83-1.75.74-.32,1.64-.48,2.71-.48l-.45,2.32c-.1-.03-.2-.04-.29-.05-.09,0-.2,0-.31,0-.95,0-1.73.25-2.36.75-.62.5-1.04,1.3-1.25,2.39l-1.03,5.13h-2.44Z"/>
      <path class="cls-8" d="M378.3,116.59c-.84,0-1.62-.18-2.31-.55s-1.25-.89-1.66-1.57c-.41-.68-.61-1.5-.61-2.47,0-.88.15-1.7.44-2.44.29-.74.71-1.38,1.24-1.93.53-.55,1.15-.97,1.86-1.27.71-.3,1.48-.45,2.33-.45s1.62.16,2.25.47c.63.31,1.11.78,1.43,1.41.33.63.47,1.41.45,2.35-.03,1.29-.26,2.41-.7,3.38-.44.97-1.06,1.72-1.85,2.25-.79.53-1.75.8-2.87.8ZM378.93,114.5c.7,0,1.32-.17,1.85-.5.53-.33.96-.79,1.27-1.38.31-.58.47-1.26.47-2.03,0-.81-.24-1.44-.72-1.91s-1.16-.7-2.03-.7c-.69,0-1.3.17-1.84.5-.54.33-.97.79-1.28,1.38s-.47,1.26-.47,2.03c0,.81.24,1.44.72,1.91.48.47,1.16.7,2.03.7ZM381.48,116.45l.47-2.38.66-2.77.33-2.79.49-2.48h2.44l-2.07,10.41h-2.32Z"/>
      <path class="cls-8" d="M394.74,105.92c.9,0,1.66.18,2.28.55.62.36,1.06.9,1.32,1.61.25.71.28,1.58.07,2.6l-1.15,5.77h-2.44l1.13-5.71c.17-.84.09-1.5-.23-1.98s-.92-.71-1.77-.71-1.64.25-2.22.74-.98,1.25-1.19,2.26l-1.09,5.4h-2.44l2.07-10.41h2.32l-.58,2.96-.39-.94c.49-.74,1.11-1.28,1.86-1.63.75-.34,1.57-.52,2.47-.52Z"/>
      <path class="cls-8" d="M403.9,116.59c-.91,0-1.76-.11-2.55-.33-.79-.22-1.4-.49-1.83-.8l1.01-1.87c.43.3.96.54,1.61.73.64.19,1.32.28,2.02.28.81,0,1.4-.11,1.78-.33.38-.22.58-.53.58-.92,0-.29-.14-.5-.41-.64-.27-.14-.62-.26-1.04-.35-.42-.09-.88-.19-1.37-.29-.49-.1-.94-.25-1.36-.43-.42-.18-.77-.45-1.04-.8-.27-.35-.41-.82-.41-1.4,0-.74.21-1.37.62-1.89.42-.52,1-.92,1.74-1.2s1.61-.42,2.58-.42c.7,0,1.39.08,2.07.23s1.23.38,1.68.66l-.9,1.87c-.47-.3-.97-.51-1.51-.62-.54-.12-1.06-.17-1.57-.17-.79,0-1.38.12-1.76.36s-.58.54-.58.91c0,.29.14.51.41.66.27.16.62.28,1.04.38.42.1.88.2,1.37.29.49.1.94.24,1.36.42s.77.45,1.04.79c.27.34.41.8.41,1.38,0,.75-.21,1.39-.63,1.92-.42.53-1.01.92-1.76,1.19-.75.27-1.62.4-2.59.4Z"/>
      <path class="cls-8" d="M410.68,108.07l.39-1.95h6.92l-.39,1.95h-6.92ZM410.7,116.45l2.22-11.07c.22-1.09.68-1.95,1.38-2.58.7-.63,1.64-.95,2.81-.95.44,0,.86.05,1.27.16.4.1.74.26,1.01.47l-.99,1.77c-.35-.29-.78-.43-1.29-.43s-.91.14-1.21.43-.51.72-.64,1.31l-.25,1.17-.12.99-1.75,8.73h-2.44Z"/>
      <path class="cls-8" d="M422.57,116.59c-1.01,0-1.9-.19-2.66-.58-.76-.38-1.35-.92-1.76-1.6-.42-.68-.62-1.48-.62-2.41,0-1.17.27-2.21.8-3.13.53-.92,1.26-1.64,2.19-2.16.93-.53,1.99-.79,3.19-.79,1.03,0,1.92.19,2.68.56.76.37,1.35.9,1.76,1.58.42.68.62,1.49.62,2.43,0,1.16-.27,2.2-.8,3.12-.53.92-1.26,1.65-2.19,2.18-.93.53-2,.8-3.21.8ZM422.73,114.5c.7,0,1.32-.17,1.85-.5.53-.33.96-.79,1.27-1.38.31-.58.47-1.26.47-2.03,0-.81-.24-1.44-.72-1.91s-1.16-.7-2.03-.7c-.69,0-1.3.17-1.84.5-.54.33-.97.79-1.28,1.38s-.47,1.26-.47,2.03c0,.82.24,1.46.72,1.92.48.46,1.16.69,2.03.69Z"/>
      <path class="cls-8" d="M430,116.45l2.07-10.41h2.32l-.58,2.96-.21-.86c.48-.84,1.09-1.43,1.83-1.75.74-.32,1.64-.48,2.71-.48l-.45,2.32c-.1-.03-.2-.04-.29-.05-.09,0-.2,0-.31,0-.95,0-1.73.25-2.36.75-.62.5-1.04,1.3-1.25,2.39l-1.03,5.13h-2.44Z"/>
      <path class="cls-8" d="M453.02,105.92c.91,0,1.67.18,2.28.55.61.36,1.04.9,1.29,1.61.25.71.27,1.58.06,2.6l-1.15,5.77h-2.44l1.15-5.71c.17-.86.1-1.52-.21-1.99s-.88-.7-1.7-.7-1.54.24-2.08.73-.91,1.24-1.12,2.25l-1.09,5.42h-2.44l1.15-5.71c.17-.86.1-1.52-.21-1.99-.31-.47-.88-.7-1.7-.7s-1.54.24-2.08.73-.91,1.24-1.12,2.27l-1.09,5.4h-2.44l2.07-10.41h2.32l-.57,2.87-.41-.84c.48-.74,1.08-1.28,1.8-1.63.72-.34,1.51-.52,2.37-.52.68,0,1.27.11,1.79.34.52.23.94.57,1.26,1.03s.5,1.03.56,1.71l-1.17-.25c.53-.94,1.22-1.64,2.06-2.12.84-.47,1.79-.71,2.86-.71Z"/>
      <path class="cls-8" d="M463.32,116.59c-.84,0-1.62-.18-2.31-.55s-1.25-.89-1.66-1.57c-.41-.68-.61-1.5-.61-2.47,0-.88.15-1.7.44-2.44.29-.74.71-1.38,1.24-1.93.53-.55,1.15-.97,1.86-1.27.71-.3,1.48-.45,2.33-.45s1.62.16,2.25.47c.63.31,1.11.78,1.43,1.41.33.63.47,1.41.45,2.35-.03,1.29-.26,2.41-.7,3.38-.44.97-1.06,1.72-1.85,2.25-.79.53-1.75.8-2.87.8ZM463.94,114.5c.7,0,1.32-.17,1.85-.5.53-.33.96-.79,1.27-1.38.31-.58.47-1.26.47-2.03,0-.81-.24-1.44-.72-1.91s-1.16-.7-2.03-.7c-.69,0-1.3.17-1.84.5-.54.33-.97.79-1.28,1.38s-.47,1.26-.47,2.03c0,.81.24,1.44.72,1.91.48.47,1.16.7,2.03.7ZM466.5,116.45l.47-2.38.66-2.77.33-2.79.49-2.48h2.44l-2.07,10.41h-2.32Z"/>
      <path class="cls-8" d="M472.3,108.07l.39-1.95h6.92l-.39,1.95h-6.92ZM475.91,116.59c-.68,0-1.26-.15-1.74-.44-.49-.29-.84-.71-1.05-1.25-.21-.54-.25-1.18-.11-1.92l1.85-9.24h2.44l-1.85,9.22c-.08.48-.03.87.16,1.17.18.3.53.45,1.03.45.23,0,.47-.04.71-.11.24-.07.46-.17.65-.3l.43,1.79c-.36.23-.77.4-1.21.49-.44.09-.88.14-1.31.14Z"/>
      <path class="cls-8" d="M480.28,116.45l2.07-10.41h2.44l-2.07,10.41h-2.44ZM484.12,104.32c-.44,0-.8-.13-1.06-.4-.27-.27-.4-.59-.4-.96,0-.44.15-.81.46-1.11.31-.3.71-.45,1.2-.45.43,0,.78.13,1.05.38.27.25.41.56.41.93,0,.48-.15.87-.45,1.17-.3.3-.7.45-1.21.45Z"/>
      <path class="cls-8" d="M491.06,116.59c-1.01,0-1.9-.19-2.66-.58-.76-.38-1.35-.92-1.76-1.6-.42-.68-.62-1.48-.62-2.41,0-1.17.27-2.21.8-3.13.53-.92,1.26-1.64,2.19-2.16.93-.53,1.99-.79,3.19-.79,1.03,0,1.92.19,2.68.56.76.37,1.35.9,1.76,1.58.42.68.62,1.49.62,2.43,0,1.16-.27,2.2-.8,3.12-.53.92-1.26,1.65-2.19,2.18-.93.53-2,.8-3.21.8ZM491.21,114.5c.7,0,1.32-.17,1.85-.5.53-.33.96-.79,1.27-1.38.31-.58.47-1.26.47-2.03,0-.81-.24-1.44-.72-1.91s-1.16-.7-2.03-.7c-.69,0-1.3.17-1.84.5-.54.33-.97.79-1.28,1.38s-.47,1.26-.47,2.03c0,.82.24,1.46.72,1.92.48.46,1.16.69,2.03.69Z"/>
      <path class="cls-8" d="M506.22,105.92c.9,0,1.66.18,2.28.55.62.36,1.06.9,1.32,1.61.25.71.28,1.58.07,2.6l-1.15,5.77h-2.44l1.13-5.71c.17-.84.09-1.5-.23-1.98s-.92-.71-1.77-.71-1.64.25-2.22.74-.98,1.25-1.19,2.26l-1.09,5.4h-2.44l2.07-10.41h2.32l-.58,2.96-.39-.94c.49-.74,1.11-1.28,1.86-1.63.75-.34,1.57-.52,2.47-.52Z"/>
    </g>
    <line class="cls-9" x1="105.48" y1="36.07" x2="92.46" y2="88.61"/>
    <line class="cls-9" x1="105.32" y1="36.51" x2="35.24" y2="87.9"/>
    <line class="cls-9" x1="105.48" y1="35.84" x2="49.91" y2="36.07"/>
  </g>
</svg>