<svg width="301" height="61" viewBox="0 0 301 61" fill="none" xmlns="http://www.w3.org/2000/svg">
<path d="M21.5574 60.2458C33.5436 60.2458 43.1148 52.9826 43.1148 39.9896C43.1148 26.9159 33.5436 19.7334 21.5574 19.7334C9.57112 19.7334 0 26.9159 0 39.9896C0 52.9826 9.57112 60.2458 21.5574 60.2458ZM21.5574 52.0142C16.1009 52.0142 12.4335 47.8984 12.4335 39.9896C12.4335 32.0001 16.1009 27.965 21.5574 27.965C27.0138 27.965 30.6813 32.0001 30.6813 39.9896C30.6813 47.8984 27.0138 52.0142 21.5574 52.0142Z" fill="white"/>
<path d="M66.3734 60.2461C72.9032 60.2461 78.0913 57.6636 80.7748 52.0145L81.8482 59.4391H91.7771V0.123047H79.9697V25.3021C77.644 21.7512 73.1715 19.7336 67.9835 19.7336C56.6233 19.7336 48.4834 27.5617 48.4834 40.5548C48.4834 51.6917 55.2816 60.2461 66.3734 60.2461ZM70.9353 51.3689C63.6899 51.3689 60.6486 46.2039 60.6486 39.7478C60.6486 31.9197 64.7633 27.8846 70.3986 27.8846C75.1394 27.8846 79.9697 31.6776 79.9697 37.5688V41.3618C79.9697 47.6566 75.7656 51.3689 70.9353 51.3689ZM112.708 60.2461C118.433 60.2461 121.922 58.7127 124.426 54.5162L125.321 59.4391H135.25V34.3407C135.25 25.4635 130.062 19.7336 117.181 19.7336C112.172 19.7336 106.357 20.8635 102.69 22.881L103.406 31.9197C106.894 29.9021 111.903 28.9337 115.392 28.9337C121.027 28.9337 123.442 31.3547 123.442 35.1477V36.0355C122.369 35.9548 121.027 35.8741 119.328 35.8741C108.057 35.8741 99.7381 40.4741 99.7381 48.7864C99.7381 55.9689 104.926 60.2461 112.708 60.2461ZM117.002 52.5794C113.782 52.5794 111.635 50.7232 111.635 48.0601C111.635 44.5899 114.945 42.4109 119.954 42.4109C121.117 42.4109 122.369 42.4916 123.442 42.5723V44.7513C123.442 49.2706 120.49 52.5794 117.002 52.5794ZM154.302 60.2461C164.321 60.2461 172.371 55.404 172.371 47.4952C172.371 41.6846 169.151 37.9723 160.743 36.1969C157.791 35.5512 155.913 34.26 155.913 32.0811C155.913 29.66 158.507 28.2881 162.085 28.2881C165.305 28.2881 168.167 28.9337 170.851 30.2249L171.566 21.5091C169.062 20.5407 165.663 19.8143 160.743 19.8143C151.977 19.8143 143.926 24.1723 143.926 32.646C143.926 38.6986 147.236 42.2495 154.839 44.025C158.507 44.9127 160.475 46.0425 160.475 48.1408C160.475 50.3197 158.149 51.6917 154.302 51.6917C151.082 51.6917 147.683 51.2074 143.926 49.6741L143.032 58.1478C146.252 59.5198 150.546 60.2461 154.302 60.2461ZM197.596 60.2461C204.215 60.2461 209.135 59.1162 212.534 57.4215L211.729 49.3513C208.509 50.8846 204.663 51.7724 199.922 51.7724C193.482 51.7724 189.456 49.0285 188.83 43.8636H215.039C215.307 42.5723 215.486 40.7162 215.486 39.3442C215.486 28.6916 210.119 19.7336 197.775 19.7336C186.236 19.7336 177.559 27.9653 177.559 41.2004C177.559 53.9513 185.789 60.2461 197.596 60.2461ZM204.752 36.1969H188.92C189.635 30.8705 192.945 27.9653 197.238 27.9653C202.695 27.9653 204.752 31.6775 204.752 36.1969ZM246.973 59.4391L262.984 20.5407H249.567L240.532 50.239L231.766 20.5407H217.901L233.555 59.4391H246.973ZM278.459 60.2461C284.184 60.2461 287.672 58.7127 290.177 54.5162L291.071 59.4391H301V34.3407C301 25.4635 295.812 19.7336 282.931 19.7336C277.922 19.7336 272.108 20.8635 268.44 22.881L269.156 31.9197C272.645 29.9021 277.654 28.9337 281.142 28.9337C286.778 28.9337 289.193 31.3547 289.193 35.1477V36.0355C288.119 35.9548 286.778 35.8741 285.078 35.8741C273.807 35.8741 265.489 40.4741 265.489 48.7864C265.489 55.9689 270.677 60.2461 278.459 60.2461ZM282.752 52.5794C279.532 52.5794 277.385 50.7232 277.385 48.0601C277.385 44.5899 280.695 42.4109 285.704 42.4109C286.867 42.4109 288.119 42.4916 289.193 42.5723V44.7513C289.193 49.2706 286.241 52.5794 282.752 52.5794Z" fill="white"/>
</svg>
