<?xml version="1.0" encoding="UTF-8"?>
<svg id="Layer_1" data-name="Layer 1" xmlns="http://www.w3.org/2000/svg" viewBox="0 0 515.45 372.59">
  <defs>
    <style>
      .cls-1 {
        fill: #2e3791;
      }

      .cls-2 {
        fill: #0995c5;
      }

      .cls-3 {
        fill: none;
        fill-rule: evenodd;
        stroke: #0995c5;
        stroke-miterlimit: 10;
        stroke-width: 14.22px;
      }
    </style>
  </defs>
  <path class="cls-3" d="M242.35,286.18H100.62c-48.27,0-87.76-39.49-87.76-87.76,0-38.51,24.86-71.18,58.99-82.88,2.93-27.3,25.84-48.75,54.12-48.75,10.24,0,19.99,2.93,28.28,8.29,18.04-39.49,47.66-65.13,93.98-65.13,51.88,0,96.59,33.35,109.88,81.02"/>
  <g>
    <path class="cls-1" d="M359.38,284.01c-33.43.13-61.06-27.02-61.06-60.63s27.19-60.63,60.63-60.63c3.6,0,6.49,2.9,6.49,6.49s-2.9,6.49-6.49,6.49c-26.28,0-47.63,21.35-47.63,47.63s21.57,47.63,47.98,47.63c9.78,0,19.14-2.98,27.06-8.67,12.6-8.96,20.14-23.55,20.23-38.97,0-3.6,2.9-6.45,6.49-6.45s6.49,2.94,6.45,6.54c-.09,19.61-9.7,38.11-25.64,49.49-10.14,7.27-22.08,11.09-34.55,11.09l.03-.02Z"/>
    <path class="cls-2" d="M358.94,318.66c-52.52,0-95.27-42.74-95.27-95.27s42.74-95.27,95.27-95.27c3.6,0,6.49,2.9,6.49,6.49s-2.9,6.49-6.49,6.49c-45.38,0-82.27,36.89-82.27,82.27s36.89,82.27,82.27,82.27,82.27-36.89,82.27-82.27c0-3.6,2.9-6.49,6.49-6.49s6.49,2.9,6.49,6.49c0,52.52-42.74,95.27-95.27,95.27h.01Z"/>
    <path class="cls-2" d="M358.94,361.96c-76.42,0-138.57-62.14-138.57-138.57s62.14-138.57,138.57-138.57c3.6,0,6.49,2.9,6.49,6.49s-2.9,6.49-6.49,6.49c-69.24,0-125.58,56.34-125.58,125.58s56.34,125.58,125.58,125.58,125.58-56.34,125.58-125.58c0-3.6,2.9-6.49,6.49-6.49s6.49,2.9,6.49,6.49c0,76.39-62.19,138.57-138.57,138.57Z"/>
    <path class="cls-1" d="M500.72,124.32c-1-2.42-3.38-4.03-6.02-4.03h-32.64v-32.66c-.01-2.64-1.57-4.98-3.99-6.02-2.42-1-5.24-.43-7.1,1.43l-41.31,41.31c-1.65,1.65-2.25,4.03-1.65,6.27l7.36,27.15-61.01,61.01c-2.56,2.56-2.56,6.67,0,9.18,1.25,1.29,2.94,1.91,4.59,1.91s3.33-.6,4.59-1.91l60.92-60.92,25.37,7.96c.65.22,1.29.31,1.95.31,1.69,0,3.33-.65,4.54-1.82l42.91-42.09c1.91-1.86,2.47-4.63,1.47-7.1h.02ZM450.01,161.47l-20.61-6.49-1.47-.47-.39-1.38-6.02-22.26,27.54-27.54v23.47c0,3.6,2.94,6.49,6.49,6.49h23.25l-28.79,28.19h0Z"/>
  </g>
</svg>