<?xml version="1.0" encoding="UTF-8"?> <svg xmlns="http://www.w3.org/2000/svg" width="136" height="24" viewBox="0 0 136 24" fill="none"><g clip-path="url(#clip0_898_2254)"><path d="M34.5039 0.0693359H38.3028V24.0001H34.5039V0.0693359Z" fill="#1E164B"></path><path d="M56.3433 17.2045H44.511C44.9347 19.3801 46.5761 20.4853 48.8378 20.4853C50.5089 20.4853 52.0826 19.8155 53.0003 18.5441L55.5239 20.519C54.1146 22.7951 51.4267 23.9998 48.6404 23.9998C44.0525 23.9998 40.5781 20.7198 40.5781 15.8328C40.5781 10.8453 44.2491 7.69775 48.6082 7.69775C53.0003 7.69775 56.4416 10.8133 56.4416 15.6978C56.4372 16.2015 56.4044 16.7046 56.3433 17.2045ZM52.6393 14.4931C52.4097 12.3512 50.8038 11.1127 48.6734 11.1127C46.6083 11.1127 44.9703 12.1166 44.511 14.4931H52.6393Z" fill="#1E164B"></path><path d="M74.9737 8.03354V23.9998H71.1713V21.5567C70.1231 23.2296 67.9596 23.9998 66.0869 23.9998C62.0557 23.9998 58.5449 20.8202 58.5449 15.8328C58.5449 10.8133 62.0193 7.69775 66.0513 7.69775C67.9851 7.69775 70.1189 8.46798 71.1637 10.108V8.03094L74.9737 8.03354ZM71.1061 15.799C71.1061 13.0539 68.8774 11.3135 66.6818 11.3135C64.3217 11.3135 62.3879 13.188 62.3879 15.799C62.3879 18.41 64.3217 20.3512 66.6818 20.3512C69.0087 20.3512 71.1061 18.5441 71.1061 15.799Z" fill="#1E164B"></path><path d="M82.1847 6.99611V8.36867H85.593V11.4842H82.1847V24H78.3857V7.19688C78.3857 2.71138 80.4797 0 84.7413 0H86.5446L85.4955 3.61489C82.905 3.61489 82.1516 5.08784 82.1847 6.99611Z" fill="#1E164B"></path><path d="M89.2148 0.0708008H93.0163V23.9998H89.2148V0.0708008Z" fill="#1E164B"></path><path d="M95.8779 2.8457C95.8779 1.47313 97.0253 0.469238 98.3693 0.469238C99.7455 0.469238 100.827 1.47313 100.827 2.8457C100.827 4.18451 99.7455 5.22216 98.3693 5.22216C97.0287 5.22216 95.8779 4.18451 95.8779 2.8457ZM96.4711 8.36885H100.273V24.0002H96.4711V8.36885Z" fill="#1E164B"></path><path d="M118.324 15.2314V23.9999H114.523V15.5984C114.523 13.1215 113.047 11.8494 111.343 11.8494C109.606 11.8494 107.445 12.8204 107.445 15.8303V23.9973H103.639V8.36861H107.44V10.8455C108.227 8.90344 110.62 8.03369 112.192 8.03369C116.129 8.03369 118.324 10.6776 118.324 15.2314Z" fill="#1E164B"></path><path d="M131.179 24.0001L125.214 16.9036V24.0001H121.412V0.0693359H125.214V13.3554L129.606 8.36877H134.555L128.328 15.197L135.997 24.0001H131.179Z" fill="#1E164B"></path><path d="M7.06316 19.1209V14.5342L0 23.9933H4.10401L7.12926 19.9422C7.08562 19.6707 7.06352 19.3961 7.06316 19.1209Z" fill="#1E164B"></path><path d="M14.4225 22.5878C13.446 22.5836 12.511 22.1842 11.8225 21.477C11.134 20.7698 10.7483 19.8126 10.7498 18.8154C10.7498 18.7851 10.7592 6.8725 10.7592 4.9426C10.7625 3.16847 12.2286 1.55791 14.1268 1.55791C14.9773 1.55738 15.7964 1.88611 16.419 2.47786C15.8883 1.5484 15.0724 0.823475 14.0976 0.415245C13.1228 0.00701436 12.0434 -0.0617656 11.0265 0.219547C10.0096 0.500859 9.11179 1.11658 8.47201 1.97145C7.83224 2.82632 7.48616 3.87269 7.48731 4.94865V19.1036C7.48731 21.6635 9.55245 23.9794 12.282 23.9794C13.2758 23.983 14.2456 23.6679 15.0547 23.0785C15.3921 22.8374 15.6985 22.5539 15.9665 22.2347C15.4836 22.4671 14.9564 22.5877 14.4225 22.5878Z" fill="#1E164B"></path><path d="M17.6345 19.1102V14.5234L13.4957 20.0345C13.2812 20.3213 12.9758 20.5231 12.6318 20.6055C12.2877 20.6879 11.9264 20.6457 11.6094 20.4862C11.8695 20.9527 12.2371 21.3474 12.6803 21.6359C13.1236 21.9245 13.6291 22.0983 14.153 22.1422C14.6768 22.1861 15.2033 22.0988 15.6867 21.8879C16.1701 21.677 16.5958 21.3489 16.9269 20.9319L17.698 19.909C17.6551 19.645 17.6339 19.3778 17.6345 19.1102Z" fill="#1E164B"></path><path d="M24.999 22.5878C24.0225 22.5839 23.0873 22.1845 22.3988 21.4773C21.7102 20.7701 21.3245 19.8128 21.3263 18.8154C21.3263 18.7852 21.3357 5.14171 21.3357 4.94266C21.3357 3.17026 22.8051 1.5623 24.7033 1.5623C25.5524 1.56261 26.3699 1.8913 26.9913 2.48225C26.4607 1.55311 25.6452 0.828358 24.6708 0.420049C23.6964 0.0117398 22.6175 -0.0573802 21.6008 0.223376C20.5841 0.504133 19.6863 1.11913 19.0462 1.97327C18.4061 2.82741 18.0594 3.87312 18.0596 4.94872V19.1036C18.0596 21.6636 20.1247 23.9794 22.8534 23.9794C23.8475 23.9832 24.8176 23.6681 25.6269 23.0785C25.9642 22.8373 26.2705 22.5538 26.5388 22.2347C26.0571 22.4664 25.5314 22.587 24.999 22.5878Z" fill="#1E164B"></path><path d="M25.557 18.021L24.0664 20.034C23.8521 20.3203 23.5473 20.5219 23.2038 20.6044C22.8603 20.687 22.4994 20.6453 22.1826 20.4866C22.4428 20.9531 22.8105 21.3477 23.2538 21.6363C23.6972 21.9249 24.2027 22.0986 24.7266 22.1425C25.2506 22.1864 25.7771 22.0992 26.2606 21.8883C26.744 21.6774 27.1698 21.3492 27.501 20.9323L28.1577 20.0547L25.557 18.021Z" fill="#1E164B"></path><path d="M24.699 2.01904C24.1635 2.01954 23.6383 2.16869 23.1794 2.45055C22.7206 2.73242 22.3454 3.13638 22.094 3.61922C22.4009 3.43268 22.7621 3.36199 23.1147 3.41948C23.4674 3.47697 23.7891 3.65898 24.0238 3.93381C24.2585 4.20864 24.3914 4.55887 24.3992 4.92346C24.4071 5.28806 24.2895 5.64392 24.0668 5.92904L21.75 9.03246V14.5141L26.6607 7.95673C27.3037 7.10772 27.6517 6.06425 27.6497 4.99092C27.6396 4.19872 27.3243 3.44248 26.7719 2.88617C26.2196 2.32985 25.4748 2.01829 24.699 2.01904Z" fill="#1E164B"></path><path d="M14.1259 2.01904C13.591 2.02016 13.0665 2.16961 12.6083 2.45144C12.1501 2.73327 11.7754 3.13689 11.5243 3.61922C11.8312 3.43372 12.1919 3.36386 12.544 3.42178C12.896 3.4797 13.217 3.66174 13.4513 3.93626C13.6855 4.21078 13.8182 4.56045 13.8263 4.9245C13.8343 5.28855 13.7173 5.64398 13.4954 5.92904L11.1777 9.03246V14.5141L16.0885 7.95673C16.7305 7.10735 17.0775 6.06393 17.0749 4.99092C17.0648 4.19902 16.7497 3.44304 16.1977 2.88677C15.6457 2.33051 14.9014 2.01875 14.1259 2.01904Z" fill="#1E164B"></path></g><defs><clipPath id="clip0_898_2254"><rect width="136" height="24" fill="white"></rect></clipPath></defs></svg> 