<svg xmlns="http://www.w3.org/2000/svg" width="192" height="34" fill="none"><g clip-path="url(#a)"><path fill="#fff" d="M50.61 18.734q2.947-.583 4.607-2.623 1.832-2.25 1.832-5.584 0-2.598-.946-4.283A7.3 7.3 0 0 0 53.56 3.56q-1.592-.993-3.64-1.408a21.6 21.6 0 0 0-4.243-.413H35.079v30.65h5.429V19.4h4.662l7.464 12.988h6.547zm-1.425-4.637a7 7 0 0 1-2.131.518q-1.164.108-2.327.108h-4.223V6.412h4.698q1.035.001 2.131.128a6.8 6.8 0 0 1 2.004.542q.904.41 1.465 1.235.558.825.559 2.166 0 1.516-.603 2.359a3.65 3.65 0 0 1-1.573 1.255M183.266 18.734q2.947-.583 4.606-2.623 1.833-2.25 1.833-5.584 0-2.598-.946-4.283a7.3 7.3 0 0 0-2.543-2.684q-1.593-.993-3.641-1.408a21.6 21.6 0 0 0-4.243-.413h-10.598v30.65h5.429V19.4h4.662l7.465 12.988h6.546zm-1.421-4.637a7 7 0 0 1-2.132.518q-1.163.108-2.327.108h-4.223V6.412h4.698q1.036.001 2.132.128a6.8 6.8 0 0 1 2.004.542 3.5 3.5 0 0 1 1.465 1.235q.557.825.558 2.166.001 1.516-.602 2.359c-.403.561-.93.983-1.573 1.255M60.582 17.194c0-2.455.403-4.681 1.205-6.69q1.205-3.008 3.337-5.13 2.133-2.12 5.086-3.27Q73.16.956 76.692.957q3.575-.042 6.55 1.059c1.98.734 3.689 1.813 5.126 3.225 1.437 1.416 2.555 3.116 3.36 5.11.803 1.99 1.206 4.216 1.206 6.666q-.001 3.591-1.205 6.539-1.207 2.942-3.361 5.066-2.156 2.123-5.125 3.313-2.97 1.189-6.55 1.235c-2.356 0-4.52-.38-6.483-1.147-1.968-.766-3.66-1.845-5.086-3.245q-2.131-2.1-3.337-5.042c-.806-1.97-1.205-4.147-1.205-6.542m5.684-.349q0 2.468.754 4.545.755 2.076 2.132 3.594a9.9 9.9 0 0 0 3.297 2.382q1.915.867 4.287.867 2.369 0 4.307-.867a9.85 9.85 0 0 0 3.317-2.382q1.377-1.515 2.132-3.594.754-2.077.754-4.545 0-2.292-.754-4.284a10.6 10.6 0 0 0-2.132-3.486 9.8 9.8 0 0 0-3.317-2.338q-1.94-.843-4.307-.842-2.37 0-4.287.842a9.8 9.8 0 0 0-3.297 2.338 10.6 10.6 0 0 0-2.132 3.486q-.754 1.992-.754 4.284M98.016 1.739h5.428v25.716h12.969v4.933H98.016zM120.377 1.739h5.429v25.716h12.969v4.933h-18.394V1.74zM142.735 1.739h20.206v4.934h-14.778v7.533h14.003v4.933h-14.003v8.311h15.552v4.934h-20.98z"/><path fill="url(#b)" d="M0 32.316h17.571L8.786 17.022z"/><path fill="#FF290C" d="m17.571 32.316 8.786-15.294-8.786-15.29H0z"/></g><defs><linearGradient id="b" x1="26.545" x2="-.284" y1="16.974" y2="32.228" gradientUnits="userSpaceOnUse"><stop stop-color="#B21500"/><stop offset="1" stop-color="#FF290C"/></linearGradient><clipPath id="a"><path fill="#fff" d="M0 .955h192v32.09H0z"/></clipPath></defs></svg>