<?xml version="1.0" encoding="utf-8"?>
<!-- Generator: Adobe Illustrator 22.1.0, SVG Export Plug-In . SVG Version: 6.00 Build 0)  -->
<svg version="1.1" id="Layer_1" xmlns="http://www.w3.org/2000/svg" xmlns:xlink="http://www.w3.org/1999/xlink" x="0px" y="0px"
	 viewBox="0 0 382.4 78.6" style="enable-background:new 0 0 382.4 78.6;" xml:space="preserve">
<style type="text/css">
	.st0{fill:#FFFFFF;}
</style>
<g>
	<path class="st0" d="M8.3,5.9c-0.2-2-1.2-2.5-2.1-2.5c-1.3,0-2,0.8-2,2.2c0,3.8,8.1,5.7,8.1,11.8c0,3.7-2.6,5.8-6.3,5.8
		S0.2,20.3,0,17l3.8-0.5c0.2,2.3,1.1,3.4,2.4,3.4c1.4,0,2.3-0.7,2.3-2.1c0-4.5-8.1-5.6-8.1-12.1C0.4,2,2.6,0,6.6,0
		c3.2,0,5.2,2.3,5.5,5.5L8.3,5.9z"/>
	<path class="st0" d="M23.1,0.3h-5l-4.3,22.5h3.9l0.7-5h4.4l0.7,5h3.9L23.1,0.3z M19,14.5l1.6-9.7h0.1l1.6,9.7H19z"/>
	<polygon class="st0" points="30,22.8 30,0.3 33.7,0.3 38.5,13.2 38.6,13.2 38.6,0.3 42.2,0.3 42.2,22.8 38.7,22.8 33.6,8.8 
		33.6,8.8 33.6,22.8 	"/>
	<polygon class="st0" points="53.8,22.8 53.8,0.3 65,0.3 65,3.7 57.8,3.7 57.8,9.5 63.2,9.5 63.2,12.9 57.8,12.9 57.8,22.8 	"/>
	<path class="st0" d="M77.2,12.6C78.5,12,80,10.6,80,7c0-4.8-2.3-6.6-6.8-6.6h-5.6v22.5h4v-9.2c0.7,0,1.5,0,2.1-0.1l2.8,9.3h4.1
		L77.2,12.6z M73,10.4h-1.4V3.5H73c2.2,0,3,0.8,3,3.5S75.2,10.4,73,10.4z"/>
	<path class="st0" d="M92,0.3h-5l-4.3,22.5h3.9l0.7-5h4.4l0.7,5h3.9L92,0.3z M87.9,14.5l1.6-9.7h0.1l1.6,9.7H87.9z"/>
	<polygon class="st0" points="98.8,22.8 98.8,0.3 102.5,0.3 107.3,13.2 107.4,13.2 107.4,0.3 111,0.3 111,22.8 107.5,22.8 
		102.4,8.8 102.4,8.8 102.4,22.8 	"/>
	<path class="st0" d="M122.4,7.8V6.1c0-1.9-0.9-2.7-1.9-2.7c-1.6,0-2.1,0.8-2.1,2.5v11.4c0,1.7,0.5,2.5,2.1,2.5
		c1.4,0,1.9-0.8,1.9-2.3v-2.7h4v2.6c0,3.2-1.9,5.8-5.9,5.8c-4.2,0-6.1-2.6-6.1-5.8V5.8c0-3.2,1.9-5.8,6.1-5.8c4,0,5.9,2.8,5.9,6.2
		v1.7L122.4,7.8L122.4,7.8z"/>
	<rect x="130" y="0.3" class="st0" width="4" height="22.5"/>
	<path class="st0" d="M145.7,5.9c-0.2-1.9-1.2-2.5-2.1-2.5c-1.3,0-2,0.8-2,2.2c0,3.8,8.1,5.7,8.1,11.8c0,3.7-2.6,5.8-6.3,5.8
		s-5.8-2.9-6-6.2l3.8-0.5c0.2,2.3,1.1,3.4,2.4,3.4c1.4,0,2.3-0.7,2.3-2.1c0-4.5-8.1-5.6-8.1-12.1c0-3.6,2.2-5.6,6.2-5.6
		c3.2,0,5.2,2.3,5.5,5.5L145.7,5.9z"/>
	<path class="st0" d="M160.6,7.8V6.1c0-1.9-0.9-2.7-1.9-2.7c-1.6,0-2.1,0.8-2.1,2.5v11.4c0,1.7,0.5,2.5,2.1,2.5
		c1.4,0,1.9-0.8,1.9-2.3v-2.7h4v2.6c0,3.2-1.9,5.8-5.9,5.8c-4.2,0-6.1-2.6-6.1-5.8V5.8c0-3.2,1.9-5.8,6.1-5.8c4,0,5.9,2.8,5.9,6.2
		v1.7L160.6,7.8L160.6,7.8z"/>
	<path class="st0" d="M173.7,0c-4.2,0-6.1,2.6-6.1,5.8v11.6c0,3.2,1.9,5.8,6.1,5.8c4.2,0,6.1-2.6,6.1-5.8V5.8
		C179.9,2.6,177.9,0,173.7,0z M175.9,17.3c0,1.7-0.5,2.5-2.1,2.5s-2.1-0.8-2.1-2.5V5.9c0-1.7,0.5-2.5,2.1-2.5s2.1,0.8,2.1,2.5V17.3z
		"/>
	<polygon class="st0" points="0,65.7 0,35.7 5.3,35.7 5.3,47.9 11,47.9 11,35.7 16.3,35.7 16.3,65.7 11,65.7 11,52.4 5.3,52.4 
		5.3,65.7 	"/>
	<polygon class="st0" points="20.7,65.7 20.7,35.7 34.9,35.7 34.9,40.2 26,40.2 26,47.9 32.9,47.9 32.9,52.4 26,52.4 26,61.2 
		35.5,61.2 35.5,65.7 	"/>
	<path class="st0" d="M50.2,35.7h-6.6l-5.7,30H43l0.9-6.7h5.8l0.9,6.7h5.1L50.2,35.7z M44.8,54.6l2.1-12.9H47l2,12.9H44.8z"/>
	<polygon class="st0" points="59.6,65.7 59.6,35.7 64.9,35.7 64.9,61.2 73.3,61.2 73.3,65.7 	"/>
	<polygon class="st0" points="77.7,40.2 72.5,40.2 72.5,35.7 88.2,35.7 88.2,40.2 83,40.2 83,65.7 77.7,65.7 	"/>
	<polygon class="st0" points="92.4,65.7 92.4,35.7 97.7,35.7 97.7,47.9 103.3,47.9 103.3,35.7 108.6,35.7 108.6,65.7 103.3,65.7 
		103.3,52.4 97.7,52.4 97.7,65.7 	"/>
	<path class="st0" d="M135.6,43.1c-0.2-2.6-1.6-3.3-2.8-3.3c-1.7,0-2.7,1.1-2.7,3c0,5.1,10.8,7.6,10.8,15.7c0,5-3.4,7.7-8.4,7.7
		c-4.9,0-7.8-3.8-8-8.3l5.1-0.7c0.2,3,1.5,4.5,3.2,4.5c1.8,0,3.1-1,3.1-2.7c0-5.9-10.8-7.5-10.8-16.1c0-4.8,3-7.5,8.2-7.5
		c4.3,0,6.9,3,7.4,7.3L135.6,43.1z"/>
	<polygon class="st0" points="144.8,65.7 144.8,35.7 159,35.7 159,40.2 150.1,40.2 150.1,47.9 157,47.9 157,52.4 150.1,52.4 
		150.1,61.2 159.6,61.2 159.6,65.7 	"/>
	<path class="st0" d="M176.6,52.1c1.8-0.8,3.7-2.7,3.7-7.6c0-6.4-3-8.9-9-8.9h-7.5v30h5.3V53.4c0.9,0,2.1,0,2.7-0.1l3.8,12.4h5.4
		L176.6,52.1z M171.1,49.2h-1.9V40h1.9c2.9,0,3.9,1,3.9,4.6S174,49.2,171.1,49.2z"/>
	<polygon class="st0" points="195.7,35.7 200.9,35.7 194.4,65.7 189.1,65.7 182.7,35.7 187.9,35.7 191.7,56.5 191.8,56.5 	"/>
	<rect x="204.6" y="35.7" class="st0" width="5.3" height="30"/>
	<path class="st0" d="M225.2,45.7v-2.3c0-2.5-1.2-3.6-2.6-3.6c-2.1,0-2.8,1.1-2.8,3.3v15.2c0,2.2,0.7,3.3,2.8,3.3
		c1.9,0,2.6-1.1,2.6-3V55h5.3v3.5c0,4.2-2.6,7.7-7.9,7.7c-5.6,0-8.1-3.5-8.1-7.7V43c0-4.2,2.6-7.7,8.1-7.7c5.3,0,7.9,3.7,7.9,8.2
		v2.2H225.2z"/>
	<polygon class="st0" points="235.3,65.7 235.3,35.7 249.5,35.7 249.5,40.2 240.6,40.2 240.6,47.9 247.5,47.9 247.5,52.4 
		240.6,52.4 240.6,61.2 250.1,61.2 250.1,65.7 	"/>
	<path class="st0" d="M276.1,43.1c-0.2-2.6-1.6-3.3-2.8-3.3c-1.7,0-2.7,1.1-2.7,3c0,5.1,10.8,7.6,10.8,15.7c0,5-3.4,7.7-8.4,7.7
		c-4.9,0-7.8-3.8-8-8.3l5.1-0.7c0.2,3,1.5,4.5,3.2,4.5c1.8,0,3.1-1,3.1-2.7c0-5.9-10.8-7.5-10.8-16.1c0-4.8,3-7.5,8.2-7.5
		c4.3,0,6.9,3,7.4,7.3L276.1,43.1z"/>
	<polygon class="st0" points="294.7,65.7 289.4,65.7 289.4,53.2 283,35.7 288.4,35.7 292.1,47.1 292.2,47.1 295.8,35.7 301.2,35.7 
		294.7,53.2 	"/>
	<path class="st0" d="M313.8,43.1c-0.2-2.6-1.6-3.3-2.8-3.3c-1.7,0-2.7,1.1-2.7,3c0,5.1,10.8,7.6,10.8,15.7c0,5-3.4,7.7-8.4,7.7
		c-4.9,0-7.8-3.8-8-8.3l5.1-0.7c0.2,3,1.5,4.5,3.2,4.5c1.8,0,3.1-1,3.1-2.7c0-5.9-10.8-7.5-10.8-16.1c0-4.8,3-7.5,8.2-7.5
		c4.3,0,6.9,3,7.4,7.3L313.8,43.1z"/>
	<polygon class="st0" points="326.7,40.2 321.6,40.2 321.6,35.7 337.2,35.7 337.2,40.2 332,40.2 332,65.7 326.7,65.7 	"/>
	<polygon class="st0" points="341.6,65.7 341.6,35.7 355.8,35.7 355.8,40.2 346.9,40.2 346.9,47.9 353.8,47.9 353.8,52.4 
		346.9,52.4 346.9,61.2 356.4,61.2 356.4,65.7 	"/>
	<polygon class="st0" points="382.4,35.7 382.4,65.7 377.7,65.7 377.7,42.3 377.6,42.3 372.8,65.7 370.3,65.7 365.5,42.3 
		365.4,42.3 365.4,65.7 360.8,65.7 360.8,35.7 367.7,35.7 371.5,53.2 371.6,53.2 375.4,35.7 	"/>
</g>
<rect y="76.4" class="st0" width="382.4" height="2.1"/>
</svg>
